HIERARCHY
ROOT Hips
{
	OFFSET 45.645802 -38.238014 95.867195
	CHANNELS 6 Xposition Yposition Zposition Xrotation Yrotation Zrotation
	JOINT spine
	{
		OFFSET 0.000000 -0.458069 7.965683
		CHANNELS 3 Xrotation Yrotation Zrotation
		JOINT spine1
		{
			OFFSET 0.000000 -0.000004 10.243103
			CHANNELS 3 Xrotation Yrotation Zrotation
			JOINT spine2
			{
				OFFSET 0.000000 0.000000 9.814751
				CHANNELS 3 Xrotation Yrotation Zrotation
				JOINT Neck
				{
					OFFSET 0.000000 -1.201385 25.198608
					CHANNELS 3 Xrotation Yrotation Zrotation
					JOINT Head
					{
						OFFSET 0.000000 -0.000004 7.613144
						CHANNELS 3 Xrotation Yrotation Zrotation
						End Site
						{
							OFFSET 0.000000 6.077332 18.428101
						}
					}
				}
				JOINT RightShoulder
				{
					OFFSET -4.132702 0.575447 10.599213
					CHANNELS 3 Xrotation Yrotation Zrotation
					JOINT RightArm
					{
						OFFSET 0.000000 0.000000 13.901794
						CHANNELS 3 Xrotation Yrotation Zrotation
						JOINT RightArmRoll
						{
							OFFSET 0.000000 -0.000004 7.017883
							CHANNELS 3 Xrotation Yrotation Zrotation
							JOINT RightForeArm
							{
								OFFSET 0.000000 -0.000004 20.440598
								CHANNELS 3 Xrotation Yrotation Zrotation
								JOINT RightForeArmRoll
								{
									OFFSET 0.000000 0.000000 7.875153
									CHANNELS 3 Xrotation Yrotation Zrotation
									JOINT RightHand
									{
										OFFSET 0.000000 -0.000004 15.803696
										CHANNELS 3 Xrotation Yrotation Zrotation
										End Site
										{
											OFFSET 0.000000 0.000000 0.100006
										}
									}
								}
							}
						}
					}
				}
				JOINT LeftShoulder
				{
					OFFSET 4.132702 0.575447 10.599213
					CHANNELS 3 Xrotation Yrotation Zrotation
					JOINT LeftArm
					{
						OFFSET 0.000000 0.000000 13.901794
						CHANNELS 3 Xrotation Yrotation Zrotation
						JOINT LeftArmRoll
						{
							OFFSET 0.000000 -0.000004 7.017883
							CHANNELS 3 Xrotation Yrotation Zrotation
							JOINT LeftForeArm
							{
								OFFSET 0.000000 -0.000004 20.440598
								CHANNELS 3 Xrotation Yrotation Zrotation
								JOINT LeftForeArmRoll
								{
									OFFSET 0.000000 0.000000 7.875153
									CHANNELS 3 Xrotation Yrotation Zrotation
									JOINT LeftHand
									{
										OFFSET 0.000000 -0.000004 15.803696
										CHANNELS 3 Xrotation Yrotation Zrotation
										End Site
										{
											OFFSET 0.000000 0.000000 0.100006
										}
									}
								}
							}
						}
					}
				}
			}
		}
	}
	JOINT RightUpLeg
	{
		OFFSET -7.060482 1.086102 -1.294701
		CHANNELS 3 Xrotation Yrotation Zrotation
		JOINT RightUpLegRoll
		{
			OFFSET 0.000000 -0.000004 18.530800
			CHANNELS 3 Xrotation Yrotation Zrotation
			JOINT RightLeg
			{
				OFFSET 0.000000 0.000004 -22.947601
				CHANNELS 3 Xrotation Yrotation Zrotation
				JOINT RightLegRoll
				{
					OFFSET 0.000000 -0.000004 23.022598
					CHANNELS 3 Xrotation Yrotation Zrotation
					JOINT RightFoot
					{
						OFFSET 0.000000 -0.000004 19.162514
						CHANNELS 3 Xrotation Yrotation Zrotation
						JOINT RightToeBase
						{
							OFFSET 0.000000 0.000000 16.018799
							CHANNELS 3 Xrotation Yrotation Zrotation
							End Site
							{
								OFFSET 0.006790 0.894203 7.757828
							}
						}
					}
				}
			}
		}
	}
	JOINT LeftUpLeg
	{
		OFFSET 7.060482 1.086102 -1.294701
		CHANNELS 3 Xrotation Yrotation Zrotation
		JOINT LeftUpLegRoll
		{
			OFFSET 0.000000 -0.000004 18.530899
			CHANNELS 3 Xrotation Yrotation Zrotation
			JOINT LeftLeg
			{
				OFFSET 0.000000 -0.000004 22.947510
				CHANNELS 3 Xrotation Yrotation Zrotation
				JOINT LeftLegRoll
				{
					OFFSET 0.000000 -0.000004 23.235504
					CHANNELS 3 Xrotation Yrotation Zrotation
					JOINT LeftFoot
					{
						OFFSET 0.000000 -0.000004 18.949600
						CHANNELS 3 Xrotation Yrotation Zrotation
						JOINT LeftToeBase
						{
							OFFSET 0.000000 0.000000 16.018799
							CHANNELS 3 Xrotation Yrotation Zrotation
							End Site
							{
								OFFSET -0.030430 0.894203 7.757828
							}
						}
					}
				}
			}
		}
	}
}
MOTION
Frames: 9
Frame Time: 0.041667
50.591705 -20.284315 77.497986 4.576146 -1.352097 -5.584889 -2.062512 -0.124562 0.270419 -0.121637 -0.256221 0.537486 1.523384 -0.249763 0.540515 21.182587 15.852613 -1.066178 -10.035158 -13.198383 -0.416691 -10.482641 -4.968915 -7.601117 -144.996993 -158.744866 -74.822666 0.000001 0.000007 -0.000006 68.532882 9.622051 11.846588 0.000001 0.000005 -3.001660 -5.000154 -7.999862 0.000035 -13.152650 24.108420 13.830738 -152.133434 175.485892 92.374736 0.000001 -0.000000 -0.000001 68.788782 -10.531808 -8.134615 0.000002 -0.000011 3.006981 -5.000156 8.000020 -0.000009 -32.473619 -139.595215 5.249303 -179.999991 0.000006 -0.119005 131.323883 0.053484 -2.990167 -0.000003 -0.000002 -0.677685 75.516580 2.786466 14.296440 25.840539 -7.354105 0.500506 -31.677803 153.012944 1.817784 -0.000002 -0.000002 -0.544490 -56.467377 -8.482397 -2.499203 -0.000005 0.000006 -3.104080 86.179079 -3.755096 -14.340105 26.123375 7.352048 -0.823086 
50.528004 -20.328413 77.639885 4.531189 -1.184497 -5.591495 -2.062157 -0.158184 0.273068 -0.120775 -0.323526 0.541903 1.524253 -0.317012 0.545739 21.144966 15.839374 -1.076888 -9.915166 -13.223202 -0.417658 -10.507211 -5.150990 -7.674247 -144.992745 -158.728870 -75.106099 -0.000000 0.000008 -0.000003 67.954126 9.778723 11.695611 -0.000000 0.000004 -3.001662 -5.000159 -7.999857 0.000034 -13.212987 24.404507 13.939149 -151.969059 175.423546 92.464458 -0.000001 0.000000 -0.000001 68.704422 -10.501242 -8.073670 0.000002 -0.000013 3.006979 -5.000154 8.000020 -0.000011 -32.151756 -139.793741 5.412219 -179.999991 0.000008 -0.123008 131.399890 -0.055553 -3.002011 -0.000000 0.000000 -0.648025 75.621874 2.830898 14.192147 25.838809 -7.354057 0.498571 -31.528051 152.847940 1.767892 -0.000002 -0.000005 -0.552096 -56.292688 -8.526812 -2.517750 -0.000006 0.000004 -3.111530 86.086304 -3.765966 -14.250217 26.122571 7.352104 -0.821141 
50.490299 -20.368109 77.636589 4.485363 -1.021442 -5.597247 -2.061319 -0.189557 0.274948 -0.118941 -0.386314 0.544843 1.526093 -0.379759 0.549429 21.082002 15.802645 -1.076903 -9.768543 -13.229062 -0.409607 -10.540054 -5.356628 -7.762314 -144.973798 -158.721507 -75.374553 -0.000000 0.000007 -0.000005 67.368164 9.934987 11.542071 0.000000 0.000005 -3.001661 -5.000154 -7.999858 0.000036 -13.283071 24.687478 14.060057 -151.792253 175.349835 92.547820 -0.000000 0.000003 0.000000 68.618109 -10.470853 -8.012795 -0.000004 -0.000013 3.006981 -5.000162 8.000021 -0.000009 -31.817903 -140.001420 5.573195 -179.999991 0.000007 -0.130003 131.499146 -0.164329 -3.009745 -0.000003 0.000000 -0.613883 75.721895 2.882305 14.062781 25.836686 -7.354009 0.495979 -31.360646 152.692226 1.709319 -0.000000 -0.000003 -0.561959 -56.088936 -8.563755 -2.534451 -0.000006 0.000004 -3.121591 85.984630 -3.781539 -14.131916 26.120653 7.352159 -0.817838 
50.461399 -20.366425 77.795883 4.439448 -0.865957 -5.602901 -2.059882 -0.217824 0.275860 -0.115951 -0.442857 0.545934 1.529095 -0.436286 0.551198 20.986911 15.738989 -1.063513 -9.591864 -13.212869 -0.390670 -10.582161 -5.587750 -7.866720 -144.935125 -158.723010 -75.620009 0.000001 0.000007 -0.000003 66.779053 10.088901 11.385718 -0.000000 0.000006 -3.001670 -5.000156 -7.999859 0.000037 -13.365108 24.952283 14.196424 -151.603507 175.262477 92.622741 -0.000001 0.000000 -0.000001 68.531434 -10.440925 -7.953300 0.000000 -0.000013 3.006982 -5.000156 8.000020 -0.000014 -31.476114 -140.217650 5.731028 -179.999991 0.000007 -0.139004 131.622800 -0.269672 -3.011496 -0.000002 -0.000002 -0.575544 75.813502 2.940416 13.907978 25.834058 -7.353969 0.492686 -31.177314 152.547248 1.642578 -0.000002 -0.000003 -0.574077 -55.857950 -8.591432 -2.548741 -0.000006 0.000007 -3.134298 85.875654 -3.802193 -13.984860 26.117629 7.352223 -0.813116 
50.422302 -20.424114 77.825592 4.394217 -0.721081 -5.609211 -2.057776 -0.242125 0.275607 -0.111623 -0.491431 0.544808 1.533435 -0.484869 0.550655 20.853462 15.644743 -1.034268 -9.381686 -13.171580 -0.359097 -10.634449 -5.846268 -7.988881 -144.871755 -158.733446 -75.834381 -0.000002 0.000008 -0.000003 66.190981 10.238126 11.226955 0.000003 0.000006 -3.001670 -5.000155 -7.999858 0.000033 -13.461154 25.193481 14.351088 -151.402713 175.159272 92.687566 -0.000002 -0.000002 0.000000 68.446118 -10.411827 -7.896091 -0.000002 -0.000013 3.006981 -5.000160 8.000020 -0.000012 -31.131705 -140.438224 5.881971 -179.999991 0.000005 -0.150998 131.772176 -0.370397 -3.007656 -0.000000 -0.000002 -0.533270 75.893859 3.004943 13.727469 25.830819 -7.353931 0.488619 -30.978897 152.417953 1.566238 -0.000004 -0.000003 -0.588452 -55.601428 -8.608025 -2.559971 -0.000004 0.000006 -3.149699 85.761071 -3.828258 -13.808926 26.113485 7.352288 -0.806905 
50.378899 -20.518810 78.046600 4.350439 -0.589838 -5.616927 -2.054900 -0.261599 0.273990 -0.105770 -0.530311 0.541095 1.539295 -0.523791 0.547406 20.675119 15.516368 -0.986809 -9.134645 -13.102018 -0.313293 -10.697966 -6.134039 -8.130305 -144.778441 -158.753049 -76.009535 -0.000002 0.000009 -0.000004 65.607826 10.380603 11.065187 0.000002 0.000004 -3.001670 -5.000156 -7.999858 0.000035 -13.573134 25.405922 14.526872 -151.190349 175.038091 92.740165 -0.000001 -0.000000 0.000001 68.363971 -10.383812 -7.842150 -0.000002 -0.000013 3.006982 -5.000157 8.000020 -0.000008 -30.789796 -140.659727 6.022823 -179.999991 0.000005 -0.165996 131.948313 -0.465265 -2.998657 -0.000003 -0.000002 -0.487343 75.959736 3.075743 13.520740 25.827184 -7.353892 0.483766 -30.767229 152.304940 1.481544 -0.000002 -0.000002 -0.605084 -55.321220 -8.611698 -2.567665 -0.000006 0.000007 -3.167848 85.642472 -3.860100 -13.603811 26.107934 7.352364 -0.799094 
50.338799 -20.546715 78.087891 4.308900 -0.475255 -5.626861 -2.051154 -0.275388 0.270812 -0.098212 -0.557774 0.534421 1.546862 -0.551332 0.541062 20.445538 15.350186 -0.919093 -8.847393 -13.000956 -0.251796 -10.773665 -6.452917 -8.292506 -144.649883 -158.782104 -76.137266 -0.000002 0.000010 -0.000005 65.033721 10.513893 10.900160 0.000003 0.000005 -3.001670 -5.000154 -7.999862 0.000036 -13.703252 25.584149 14.726619 -150.966278 174.896747 92.778653 0.000000 0.000001 -0.000000 68.286729 -10.357109 -7.792566 -0.000004 -0.000013 3.006981 -5.000158 8.000022 -0.000012 -30.453819 -140.881162 6.152839 -179.999991 0.000003 -0.184997 132.152385 -0.550995 -2.983649 -0.000001 -0.000001 -0.438045 76.008080 3.152763 13.287378 25.822942 -7.353844 0.478058 -30.543387 152.212350 1.387754 -0.000002 -0.000002 -0.623974 -55.018898 -8.600577 -2.571246 -0.000004 0.000008 -3.188780 85.521550 -3.898101 -13.369084 26.101167 7.352445 -0.789664 
50.299706 -20.637115 78.326881 4.270332 -0.380355 -5.639789 -2.046443 -0.282632 0.265875 -0.088763 -0.572095 0.524412 1.556316 -0.565772 0.531224 20.158612 15.142319 -0.829399 -8.516661 -12.865007 -0.173396 -10.862640 -6.804703 -8.477124 -144.480986 -158.821050 -76.209311 -0.000003 0.000008 -0.000004 64.472608 10.635698 10.731270 0.000002 0.000005 -3.001670 -5.000154 -7.999862 0.000035 -13.853342 25.722807 14.953012 -150.730691 174.733205 92.800797 0.000001 0.000001 0.000000 68.216193 -10.332069 -7.748030 -0.000001 -0.000012 3.006980 -5.000160 8.000023 -0.000012 -30.129300 -141.097215 6.268071 -179.999991 0.000007 -0.207006 132.385459 -0.626283 -2.960170 -0.000000 -0.000001 -0.385644 76.035872 3.235960 13.027302 25.818091 -7.353809 0.471467 -30.308814 152.143406 1.284494 -0.000002 -0.000004 -0.645123 -54.696278 -8.572844 -2.570452 -0.000006 0.000006 -3.212559 85.400177 -3.942459 -13.104701 26.092895 7.352536 -0.778512 
50.254704 -20.677313 78.395393 4.234916 -0.302418 -5.655836 -2.040724 -0.283347 0.258580 -0.077314 -0.573292 0.509859 1.567767 -0.567144 0.516688 19.793873 14.878334 -0.712081 -8.118424 -12.682131 -0.073041 -10.972235 -7.198247 -8.697547 -144.267665 -158.887658 -76.219563 -0.000002 0.000010 -0.000004 63.897157 10.754779 10.551753 0.000001 0.000003 -3.001668 -5.000154 -7.999860 0.000037 -14.032080 25.811667 15.218432 -150.471212 174.543435 92.793871 -0.000000 -0.000002 -0.000001 68.157085 -10.310591 -7.710198 -0.000002 -0.000013 3.006983 -5.000155 8.000020 -0.000011 -29.808428 -141.318308 6.371611 -179.999991 0.000009 -0.233997 132.647560 -0.693792 -2.928176 -0.000000 -0.000002 -0.324098 76.056848 3.333451 12.723430 25.812629 -7.353766 0.463867 -30.057067 152.095896 1.169748 -0.000002 -0.000001 -0.670196 -54.346617 -8.527357 -2.571822 -0.000005 0.000008 -3.247567 85.289959 -4.001488 -12.791331 26.077951 7.352727 -0.759384 
